<svg width="98" height="98" viewBox="0 0 98 98" fill="none" xmlns="http://www.w3.org/2000/svg">
<g clip-path="url(#clip0_2710_26)">
<path fill-rule="evenodd" clip-rule="evenodd" d="M97.9969 49.0556C97.9969 68.8843 81.8824 85.1624 62.0537 85.1624H30.0986C13.4922 85.1624 0 71.5062 0 54.9003C0.411906 35.4516 16.7993 22.3037 35.1784 25.0752C59.3874 -1.13402 98.4029 18.4449 97.9969 49.0556ZM30.0437 30.2099C16.4967 30.2099 5.46254 41.2988 5.46254 54.9003C5.46254 68.5019 16.4967 79.6453 30.0984 79.6453H42.9896C40.5316 78.0613 38.2374 75.8762 36.2162 73.8006H30.0982C19.5556 73.8006 10.9796 65.2244 10.9796 54.6818C10.9796 44.1391 19.5558 35.6177 30.0982 35.6177C42.1509 36.2111 44.2181 42.6903 53.6961 51.6774C56.3395 54.2145 60.0279 50.5524 57.6292 47.8537C45.5013 35.0862 42.377 30.8766 30.0437 30.2099ZM92.4796 48.8915C92.3169 21.2902 59.7951 9.04955 41.2963 26.6593C43.1535 27.424 44.9016 28.2981 46.5402 29.3907C62.9679 16.567 86.7317 27.7344 86.9626 48.8915C87.5892 69.2744 62.0552 83.0895 44.4099 66.4808L29.8251 51.896C27.222 49.4058 23.4335 52.9859 25.8921 55.7198L40.5316 70.4138C58.84 88.4829 91.4501 77.8764 92.4796 48.8915Z" fill="black"/>
</g>
<defs>
<clipPath id="clip0_2710_26">
<rect width="98" height="98" fill="white"/>
</clipPath>
</defs>
</svg>
