<svg width="30" height="26" viewBox="0 0 30 26" fill="none" xmlns="http://www.w3.org/2000/svg">
<path d="M1.66602 1H9.66602C11.0805 1 12.4371 1.5619 13.4373 2.5621C14.4374 3.56229 14.9993 4.91885 14.9993 6.33333V25C14.9993 23.9391 14.5779 22.9217 13.8278 22.1716C13.0776 21.4214 12.0602 21 10.9993 21H1.66602V1Z" stroke="black" stroke-width="2" stroke-linecap="round" stroke-linejoin="round"/>
<path d="M28.3314 1H20.3314C18.9169 1 17.5603 1.5619 16.5601 2.5621C15.5599 3.56229 14.998 4.91885 14.998 6.33333V25C14.998 23.9391 15.4195 22.9217 16.1696 22.1716C16.9198 21.4214 17.9372 21 18.998 21H28.3314V1Z" stroke="black" stroke-width="2" stroke-linecap="round" stroke-linejoin="round"/>
</svg>
