<svg width="222" height="56" viewBox="0 0 222 56" fill="none" xmlns="http://www.w3.org/2000/svg">
<path d="M6.17376 14.5547H3.91113V24.5506H0V0.5H3.91113V11.0662H6.23841L13.7374 0.5H17.9395L9.34145 12.5085L18.295 24.5506H13.5758L6.17376 14.5547Z" fill="white"/>
<path d="M27.4814 0.5H32.6208L40.831 24.5506H36.7906L34.6572 18.2445H24.8956L22.7622 24.5506H19.3036L27.4814 0.5ZM33.4612 14.7559L29.7764 3.92143L26.0915 14.7559H33.4612Z" fill="white"/>
<path d="M50.0186 14.5547H47.756V24.5506H43.8449V0.5H47.756V11.0662H50.0833L57.5823 0.5H61.7843L53.1863 12.5085L62.1399 24.5506H57.4207L50.0186 14.5547Z" fill="white"/>
<path d="M6.17376 45.3028H3.91113V55.2987H0V31.2481H3.91113V41.8143H6.23841L13.7374 31.2481H17.9395L9.34145 43.2567L18.295 55.2987H13.5758L6.17376 45.3028Z" fill="white"/>
<path d="M21.2753 31.2481H28.839C31.6404 31.2481 33.8168 31.8295 35.3683 32.9924C36.9198 34.1552 37.6956 36.0001 37.6956 38.527C37.6956 39.9135 37.4801 41.1099 37.0491 42.1162C36.6182 43.1225 36.004 43.9499 35.2067 44.5984C34.4309 45.2469 33.4828 45.7277 32.3622 46.0408C31.2633 46.3315 30.035 46.4768 28.6774 46.4768H25.1865V55.2987H21.2753V31.2481ZM25.1865 34.7702V42.9883H28.6774C30.2505 42.9883 31.4895 42.6641 32.3946 42.0155C33.2996 41.367 33.7522 40.2489 33.7522 38.6612C33.7522 37.2971 33.332 36.3132 32.4915 35.7094C31.6727 35.0832 30.4552 34.7702 28.839 34.7702H25.1865Z" fill="white"/>
<path d="M41.288 31.2481H56.2214V34.7702H45.1992V41.1099H54.5406V44.5984H45.1992V51.8102H56.383V55.2987H41.288V31.2481Z" fill="white"/>
<path d="M66.9387 31.2481H72.0781L80.2882 55.2987H76.2478L74.1144 48.9926H64.3528L62.2194 55.2987H58.7608L66.9387 31.2481ZM72.9185 45.5041L69.2336 34.6695L65.5487 45.5041H72.9185Z" fill="white"/>
<path d="M90.3062 34.7702V55.2987H86.3627V34.7702H79.3162V31.2481H97.3203V34.7702H90.3062Z" fill="white"/>
<path d="M100.632 55.2987V31.2481H104.543V49.5293L116.276 31.2481H120.349V55.2987H116.373V37.0847L104.704 55.2987H100.632Z" fill="white"/>
<path d="M125.285 31.2481H133.171C135.93 31.2481 138.031 31.6954 139.475 32.5899C140.918 33.4843 141.64 34.9938 141.64 37.1182C141.64 37.9903 141.522 38.7507 141.285 39.3992C141.048 40.0253 140.703 40.5732 140.25 41.0428C139.819 41.49 139.291 41.859 138.666 42.1497C138.042 42.4404 137.352 42.6641 136.598 42.8206C138.537 43.0666 140.002 43.6145 140.994 44.4642C141.985 45.314 142.481 46.611 142.481 48.3553C142.481 49.6075 142.244 50.6809 141.77 51.5754C141.295 52.4475 140.638 53.1631 139.798 53.7222C138.957 54.2589 137.966 54.6614 136.824 54.9298C135.682 55.1757 134.443 55.2987 133.107 55.2987H125.285V31.2481ZM129.196 34.7702V41.177H133.365C134.658 41.177 135.703 40.8974 136.501 40.3384C137.298 39.757 137.697 38.8513 137.697 37.6214C137.697 36.5033 137.33 35.7541 136.598 35.374C135.887 34.9714 134.874 34.7702 133.559 34.7702H129.196ZM129.196 44.6655V51.8102H133.495C134.227 51.8102 134.895 51.7543 135.499 51.6425C136.102 51.5083 136.619 51.3071 137.05 51.0387C137.481 50.748 137.815 50.379 138.052 49.9318C138.289 49.4622 138.408 48.8919 138.408 48.2211C138.408 46.9017 137.988 45.9849 137.147 45.4705C136.328 44.9338 135.003 44.6655 133.171 44.6655H129.196Z" fill="white"/>
<path d="M146.371 55.2987V31.2481H150.282V49.5293L162.015 31.2481H166.088V55.2987H162.112V37.0847L150.443 55.2987H146.371Z" fill="white"/>
<path d="M180.3 34.7702V55.2987H176.357V34.7702H169.31V31.2481H187.314V34.7702H180.3Z" fill="white"/>
<path d="M207.014 47.416C207.014 48.8249 206.798 50.0324 206.367 51.0387C205.936 52.0227 205.322 52.8389 204.525 53.4874C203.749 54.1135 202.812 54.572 201.713 54.8627C200.614 55.1534 199.385 55.2987 198.028 55.2987H190.626V31.2481H194.537V40.07H198.319C201.12 40.07 203.264 40.6626 204.751 41.8478C206.259 43.0107 207.014 44.8667 207.014 47.416ZM194.537 43.525V51.8102H198.028C198.782 51.8102 199.461 51.7431 200.064 51.609C200.689 51.4524 201.217 51.2176 201.648 50.9046C202.079 50.5691 202.402 50.1331 202.618 49.5964C202.855 49.0597 202.973 48.3888 202.973 47.5838C202.973 46.2197 202.575 45.2022 201.777 44.5313C200.98 43.8604 199.806 43.525 198.254 43.525H194.537Z" fill="white"/>
<path d="M221.995 37.7555C221.995 38.896 221.823 39.8576 221.478 40.6403C221.133 41.4006 220.692 42.0491 220.153 42.5858C219.636 43.1225 219.065 43.5809 218.44 43.9611C217.836 44.3412 217.265 44.7102 216.727 45.068C216.209 45.4034 215.778 45.7724 215.434 46.1749C215.089 46.5775 214.917 47.0582 214.917 47.6173V48.2882H211.49V47.6508C211.49 46.6445 211.652 45.8171 211.975 45.1686C212.298 44.5201 212.708 43.9723 213.203 43.525C213.699 43.0778 214.227 42.6864 214.787 42.351C215.347 41.9932 215.875 41.6242 216.371 41.2441C216.867 40.8415 217.276 40.3831 217.599 39.8688C217.923 39.3321 218.084 38.6388 218.084 37.7891C218.084 37.3418 218.03 36.9058 217.923 36.4809C217.815 36.0336 217.599 35.6423 217.276 35.3069C216.974 34.9714 216.543 34.7031 215.983 34.5018C215.423 34.2782 214.69 34.1664 213.785 34.1664C212.686 34.1664 211.77 34.3006 211.038 34.5689C210.305 34.8149 209.723 35.0832 209.292 35.374V32.1538C209.788 31.8631 210.445 31.5947 211.264 31.3487C212.104 31.0804 213.149 30.9462 214.399 30.9462C215.692 30.9462 216.813 31.1251 217.761 31.4829C218.709 31.8184 219.496 32.288 220.121 32.8917C220.745 33.4955 221.209 34.2223 221.51 35.0721C221.834 35.8995 221.995 36.794 221.995 37.7555ZM213.3 55.5C212.589 55.5 211.986 55.254 211.49 54.762C211.016 54.2701 210.779 53.6663 210.779 52.9507C210.779 52.2351 211.016 51.6313 211.49 51.1394C211.986 50.625 212.589 50.3679 213.3 50.3679C214.011 50.3679 214.604 50.625 215.078 51.1394C215.574 51.6313 215.822 52.2351 215.822 52.9507C215.822 53.6663 215.574 54.2701 215.078 54.762C214.604 55.254 214.011 55.5 213.3 55.5Z" fill="white"/>
</svg>
